HIERARCHY
ROOT Hips
{
	OFFSET 0.000000 89.005402 0.000000
	CHANNELS 6 Xposition Yposition Zposition Xrotation Yrotation Zrotation
	JOINT Spine
	{
		OFFSET 0.116900 10.681000 0.373400
		CHANNELS 3 Xrotation Yrotation Zrotation
		JOINT Spine1
		{
			OFFSET 0.000000 13.840401 0.053500
			CHANNELS 3 Xrotation Yrotation Zrotation
			JOINT Spine2
			{
				OFFSET 0.000000 14.712700 -0.366200
				CHANNELS 3 Xrotation Yrotation Zrotation
				JOINT Neck
				{
					OFFSET 0.000000 35.415497 -3.314200
					CHANNELS 3 Xrotation Yrotation Zrotation
					JOINT Head
					{
						OFFSET 0.000000 16.899200 1.218300
						CHANNELS 3 Xrotation Yrotation Zrotation
						JOINT HeadTop_End
						{
							OFFSET 0.000000 22.206207 2.192500
							CHANNELS 3 Xrotation Yrotation Zrotation
							End Site
							{
								OFFSET 0.000000 22.314178 0.000000
							}
						}
					}
				}
				JOINT LeftShoulder
				{
					OFFSET 12.896400 26.716293 -4.548400
					CHANNELS 3 Xrotation Yrotation Zrotation
					JOINT LeftArm
					{
						OFFSET 19.027000 -4.857010 -1.718400
						CHANNELS 3 Xrotation Yrotation Zrotation
						JOINT LeftForeArm
						{
							OFFSET 24.179897 0.000000 0.000000
							CHANNELS 3 Xrotation Yrotation Zrotation
							JOINT LeftHand
							{
								OFFSET 27.156403 0.000000 0.000000
								CHANNELS 3 Xrotation Yrotation Zrotation
								JOINT LeftHandIndex1
								{
									OFFSET 16.441200 0.000000 0.000000
									CHANNELS 3 Xrotation Yrotation Zrotation
									JOINT LeftHandIndex2
									{
										OFFSET 4.821899 0.000000 0.000000
										CHANNELS 3 Xrotation Yrotation Zrotation
										JOINT LeftHandIndex3
										{
											OFFSET 6.386497 0.000000 0.000000
											CHANNELS 3 Xrotation Yrotation Zrotation
											JOINT LeftHandIndex4
											{
												OFFSET 5.188988 0.000000 0.000000
												CHANNELS 3 Xrotation Yrotation Zrotation
												End Site
												{
													OFFSET -0.178703 5.185913 0.000177
												}
											}
										}
									}
								}
								JOINT LeftHandThumb1
								{
									OFFSET 6.534897 -5.032593 5.900300
									CHANNELS 3 Xrotation Yrotation Zrotation
									JOINT LeftHandThumb2
									{
										OFFSET 3.818176 -2.204422 2.204423
										CHANNELS 3 Xrotation Yrotation Zrotation
										JOINT LeftHandThumb3
										{
											OFFSET 3.252098 -1.877594 1.877601
											CHANNELS 3 Xrotation Yrotation Zrotation
											JOINT LeftHandThumb4
											{
												OFFSET 5.251778 -3.032120 3.032117
												CHANNELS 3 Xrotation Yrotation Zrotation
												End Site
												{
													OFFSET 0.000023 6.780014 0.000000
												}
											}
										}
									}
								}
							}
						}
					}
				}
				JOINT RightShoulder
				{
					OFFSET -12.896300 26.716293 -4.548400
					CHANNELS 3 Xrotation Yrotation Zrotation
					JOINT RightArm
					{
						OFFSET -19.027000 -4.857010 -1.718400
						CHANNELS 3 Xrotation Yrotation Zrotation
						JOINT RightForeArm
						{
							OFFSET -24.179897 0.000000 0.000000
							CHANNELS 3 Xrotation Yrotation Zrotation
							JOINT RightHand
							{
								OFFSET -27.156403 0.000000 0.000000
								CHANNELS 3 Xrotation Yrotation Zrotation
								JOINT RightHandThumb1
								{
									OFFSET -6.591202 -4.852203 5.988100
									CHANNELS 3 Xrotation Yrotation Zrotation
									JOINT RightHandThumb2
									{
										OFFSET -3.818176 -2.204422 2.204423
										CHANNELS 3 Xrotation Yrotation Zrotation
										JOINT RightHandThumb3
										{
											OFFSET -3.252098 -1.877594 1.877601
											CHANNELS 3 Xrotation Yrotation Zrotation
											JOINT RightHandThumb4
											{
												OFFSET -5.251778 -3.032120 3.032117
												CHANNELS 3 Xrotation Yrotation Zrotation
												End Site
												{
													OFFSET -0.000023 6.780014 0.000000
												}
											}
										}
									}
								}
								JOINT RightHandIndex1
								{
									OFFSET -16.029404 0.000000 0.000000
									CHANNELS 3 Xrotation Yrotation Zrotation
									JOINT RightHandIndex2
									{
										OFFSET -5.213303 0.000000 0.000000
										CHANNELS 3 Xrotation Yrotation Zrotation
										JOINT RightHandIndex3
										{
											OFFSET -6.386528 0.000000 0.000000
											CHANNELS 3 Xrotation Yrotation Zrotation
											JOINT RightHandIndex4
											{
												OFFSET -5.189026 0.000000 0.000000
												CHANNELS 3 Xrotation Yrotation Zrotation
												End Site
												{
													OFFSET 0.236702 5.183624 0.001972
												}
											}
										}
									}
								}
							}
						}
					}
				}
			}
		}
	}
	JOINT LeftUpLeg
	{
		OFFSET 14.073000 -7.904099 -1.463000
		CHANNELS 3 Xrotation Yrotation Zrotation
		JOINT LeftLeg
		{
			OFFSET -0.109806 -34.073280 4.093200
			CHANNELS 3 Xrotation Yrotation Zrotation
			JOINT LeftFoot
			{
				OFFSET 0.109806 -29.899420 -6.319000
				CHANNELS 3 Xrotation Yrotation Zrotation
				JOINT LeftToeBase
				{
					OFFSET 1.551100 -14.988700 20.535801
					CHANNELS 3 Xrotation Yrotation Zrotation
					JOINT LeftToe_End
					{
						OFFSET 0.221200 0.570800 13.248301
						CHANNELS 3 Xrotation Yrotation Zrotation
						End Site
						{
							OFFSET 0.000000 13.262435 0.000000
						}
					}
				}
			}
		}
	}
	JOINT RightUpLeg
	{
		OFFSET -13.839300 -7.904099 -1.463000
		CHANNELS 3 Xrotation Yrotation Zrotation
		JOINT RightLeg
		{
			OFFSET 0.109694 -34.073219 4.093300
			CHANNELS 3 Xrotation Yrotation Zrotation
			JOINT RightFoot
			{
				OFFSET -0.109694 -29.899384 -6.319200
				CHANNELS 3 Xrotation Yrotation Zrotation
				JOINT RightToeBase
				{
					OFFSET -1.551100 -14.988700 20.535801
					CHANNELS 3 Xrotation Yrotation Zrotation
					JOINT RightToe_End
					{
						OFFSET -0.221200 0.570900 13.248299
						CHANNELS 3 Xrotation Yrotation Zrotation
						End Site
						{
							OFFSET 0.000000 13.262440 0.000000
						}
					}
				}
			}
		}
	}
}
MOTION
Frames: 5
Frame Time: 0.033333
0.060637 78.624130 3.339239 17.415391 -2.359035 -0.207402 14.913406 -1.567323 0.394109 5.346291 -0.845701 -1.565919 5.141026 -0.428913 -0.180635 -8.304036 0.965534 1.844257 -26.440139 5.059195 0.652089 0.000000 -0.000000 0.000000 -18.185041 -16.684737 -4.143143 -14.299583 5.321648 -58.617271 0.000018 -50.169635 0.000024 13.748579 -26.697319 34.896980 0.153515 -1.751682 -23.178197 0.809103 2.972641 -30.446507 0.886316 3.100017 -31.903872 -0.000001 0.000004 -0.000000 11.187894 5.997100 -10.405209 5.363085 8.352004 0.904218 -5.734086 10.813559 15.939368 -0.000001 -0.000001 0.000002 -23.769977 22.742588 4.874673 -5.448445 5.986794 54.374986 -0.000008 52.736027 0.000004 3.172466 25.718681 -41.552695 -1.236998 9.918026 5.832121 6.896986 -18.930020 -2.479193 -4.452425 -14.082262 -16.510193 -0.000005 0.000003 0.000002 0.710420 3.726550 13.785594 0.253613 -1.517392 18.976111 0.289150 -1.617005 20.275707 -0.000001 0.000001 -0.000002 -41.408339 0.534672 22.113965 34.722923 -3.833552 2.644716 -11.152151 -4.117577 -20.714424 -5.308803 0.000003 0.000000 0.000000 -0.000000 -0.000000 -40.246511 -1.617988 -14.904752 36.408880 -2.628124 -8.312022 -10.804549 -2.513878 22.734768 -3.267374 -0.000001 -0.000002 -0.000000 -0.000001 -0.000000 
0.623557 78.496017 3.837170 17.992200 -2.247500 -0.791926 14.884324 -1.485806 0.393957 5.330380 -0.785031 -1.553948 5.124604 -0.368009 -0.168652 -8.283923 1.141344 1.638951 -26.351739 5.736420 0.532321 -0.000000 0.000000 -0.000000 -18.264698 -16.724615 -4.713325 -13.260560 5.154088 -57.987193 0.000006 -51.709617 0.000013 12.788443 -23.040646 36.997885 0.012583 -2.167869 -22.415552 0.732451 2.838335 -28.934324 0.805431 2.966368 -30.375675 0.000002 0.000003 0.000003 10.272736 5.665017 -9.490086 5.672336 8.502974 0.668936 -5.680897 10.810507 15.610097 0.000002 0.000002 0.000003 -23.713512 22.957126 4.627026 -6.306167 4.019439 55.424400 -0.000018 52.908196 0.000011 2.999496 26.395275 -35.906707 -1.957290 9.326907 5.113833 6.499000 -18.974890 -2.580860 -4.452434 -14.082270 -16.510193 0.000003 0.000001 0.000001 0.691767 3.963813 13.300730 0.215348 -1.401178 17.473475 0.246875 -1.497664 18.720174 -0.000000 0.000003 -0.000005 -42.382020 0.070529 22.212704 36.305792 -4.022069 2.600480 -12.262140 -3.816340 -20.213557 -5.247092 0.000000 -0.000006 -0.000001 0.000000 0.000000 -39.907221 -1.721345 -14.860938 35.671524 -2.915465 -8.314326 -10.793704 -2.619084 23.383395 -3.205960 -0.000006 0.000000 0.000000 0.000000 0.000000 
1.233944 78.371391 4.383781 18.529847 -2.277956 -1.344177 14.884157 -1.482326 0.287395 5.336450 -0.747345 -1.616407 5.130650 -0.331322 -0.231205 -8.220212 1.293780 1.435335 -26.445651 6.312639 0.380507 -0.000000 0.000000 -0.000000 -18.331294 -16.730909 -5.313209 -12.273820 5.670296 -57.384046 0.000010 -53.965714 0.000020 10.180565 -19.561807 38.588510 -0.128750 -2.625969 -21.611431 0.655003 2.693662 -27.329648 0.724825 2.824521 -28.779934 -0.000001 0.000003 0.000002 9.356069 5.303093 -8.603166 5.995678 8.661815 0.405311 -5.582418 10.739518 15.232539 -0.000000 0.000002 0.000000 -23.654907 23.074522 4.407586 -7.380747 2.136328 56.911226 0.000013 52.481606 -0.000014 2.853281 26.555509 -29.876542 -2.704416 8.706119 4.377417 6.072853 -19.021966 -2.690044 -4.452415 -14.082269 -16.510183 -0.000002 0.000003 -0.000001 0.659741 4.281165 12.860874 0.176525 -1.271338 15.808949 0.206105 -1.371521 17.091693 -0.000000 -0.000001 0.000003 -43.302617 -0.380319 22.268403 38.053757 -4.155454 2.641369 -13.366339 -3.464496 -19.770461 -5.448655 -0.000001 -0.000007 0.000000 0.000000 0.000000 -39.499534 -1.840093 -14.840302 34.819444 -3.053770 -8.325118 -10.723826 -2.708672 24.033107 -3.144561 -0.000002 -0.000001 0.000000 0.000000 -0.000000 
1.957298 78.240028 4.989958 19.075928 -2.504393 -2.006688 14.912355 -1.433733 0.132931 5.367850 -0.645681 -1.689336 5.161492 -0.231507 -0.304460 -8.054008 1.455965 1.300222 -26.823806 7.195164 -0.038408 -0.000001 -0.000000 -0.000000 -18.400091 -16.649711 -5.953679 -11.593166 6.380981 -56.723341 0.000023 -56.166247 0.000034 8.112412 -15.918574 41.156398 -0.267138 -3.123633 -20.769661 0.578320 2.539929 -25.649865 0.645629 2.675457 -27.129431 0.000002 -0.000000 -0.000002 8.437599 4.914508 -7.742708 6.331935 8.827157 0.115257 -5.441688 10.603799 14.810633 -0.000002 -0.000000 -0.000001 -23.608494 23.176089 4.231280 -8.469606 0.120479 58.402823 -0.000008 52.169856 0.000001 3.155214 25.841082 -24.073507 -3.472225 8.071379 3.623109 5.622530 -19.070614 -2.805765 -4.452418 -14.082275 -16.510191 -0.000002 0.000000 0.000002 0.620365 4.656063 12.453370 0.139203 -1.131265 14.028875 0.167793 -1.240168 15.411149 -0.000002 -0.000000 -0.000000 -44.830473 -1.139358 22.366122 40.865910 -4.381495 2.891435 -14.010701 -3.092534 -19.474008 -7.243753 0.000001 -0.000014 0.000000 -0.000000 0.000000 -38.980094 -2.037032 -14.722259 33.651973 -3.047564 -8.344025 -10.490661 -2.763768 24.715506 -3.083148 0.000003 -0.000002 -0.000000 0.000001 0.000000 
2.778445 78.064339 5.658098 19.505386 -2.734075 -2.735188 15.056104 -1.449333 -0.004827 5.488543 -0.592827 -1.759176 5.282025 -0.180537 -0.374293 -7.790108 1.656403 1.262239 -27.058057 8.573780 -0.704351 -0.000001 0.000000 -0.000000 -18.499735 -16.601854 -6.673646 -10.921572 7.223044 -55.832770 -0.000005 -58.362006 -0.000012 5.716935 -12.580676 43.929168 -0.399325 -3.658247 -19.893886 0.503760 2.378600 -23.912518 0.568905 2.520272 -25.436929 0.000001 0.000003 0.000000 7.516965 4.502390 -6.906770 6.679997 8.997724 -0.199235 -5.261965 10.406475 14.348474 0.000003 -0.000001 -0.000000 -23.556771 23.380928 4.009103 -9.818306 -1.734619 60.073433 -0.000008 51.521609 -0.000008 3.945613 24.575997 -18.814439 -4.254306 7.437732 2.851914 5.151977 -19.120213 -2.927056 -4.452427 -14.082289 -16.510193 0.000001 0.000001 0.000000 0.579129 5.065966 12.065406 0.105045 -0.984624 12.179573 0.132776 -1.105238 13.699450 -0.000003 -0.000002 0.000002 -46.760121 -2.033012 22.320223 44.570304 -4.600362 3.354836 -14.495929 -2.831282 -18.965980 -10.258236 0.000001 0.000003 0.000000 0.000000 0.000000 -38.248745 -2.283003 -14.638929 32.417618 -3.015532 -8.372965 -10.278899 -2.829500 25.492083 -3.021744 0.000002 -0.000002 -0.000000 -0.000000 -0.000000 
